<svg width="20" height="20" viewBox="0 0 20 20" fill="none" xmlns="http://www.w3.org/2000/svg">
<path d="M17.2222 0H2.77778C1.2443 0.00189889 0.00189889 1.2443 0 2.77778V17.2222C0.00189889 18.7557 1.2443 19.9981 2.77778 20H17.2222C18.7557 19.9981 19.9981 18.7557 20 17.2222V2.77778C19.9981 1.2443 18.7557 0.00189889 17.2222 0ZM18.8889 17.2222C18.8889 18.1426 18.1426 18.8889 17.2222 18.8889H2.77778C1.85737 18.8889 1.11111 18.1426 1.11111 17.2222V2.77778C1.11111 1.85737 1.85737 1.11111 2.77778 1.11111H17.2222C18.1426 1.11111 18.8889 1.85737 18.8889 2.77778V17.2222Z"/>
<path d="M10.0001 4.44434C6.93177 4.44434 4.44452 6.93159 4.44452 9.99989C4.44452 13.0682 6.93177 15.5554 10.0001 15.5554C13.0684 15.5554 15.5556 13.0682 15.5556 9.99989C15.5524 6.93294 13.067 4.44759 10.0001 4.44434ZM10.0001 14.4443C7.54538 14.4443 5.55563 12.4546 5.55563 9.99989C5.55563 7.54519 7.54538 5.55545 10.0001 5.55545C12.4548 5.55545 14.4445 7.54519 14.4445 9.99989C14.4418 12.4532 12.4534 14.4416 10.0001 14.4443Z"/>
<path d="M16.1112 2.22217C15.1908 2.22217 14.4445 2.96842 14.4445 3.88883C14.4445 4.80924 15.1908 5.5555 16.1112 5.5555C17.0316 5.5555 17.7779 4.80924 17.7779 3.88883C17.7779 2.96842 17.0316 2.22217 16.1112 2.22217ZM16.1112 4.44439C15.8044 4.44439 15.5556 4.19564 15.5556 3.88883C15.5556 3.58203 15.8044 3.33328 16.1112 3.33328C16.418 3.33328 16.6667 3.58203 16.6667 3.88883C16.6667 4.19564 16.418 4.44439 16.1112 4.44439Z"/>
</svg>
