<svg width="45" height="45" viewBox="0 0 45 45" fill="none" xmlns="http://www.w3.org/2000/svg">
<path fill-rule="evenodd" clip-rule="evenodd" d="M17.2455 0.494446C14.1619 1.24257 9.99814 3.44031 7.56456 5.6041C2.20075 10.3731 -0.405213 16.7544 0.0511295 24.0024C0.41904 29.8512 2.4974 34.3228 6.82874 38.5862C16.0802 47.6925 31.3011 47.0112 39.5657 37.121C47.2395 27.9378 46.7362 15.1025 38.3727 6.68879C35.2186 3.51569 32.4787 1.89705 28.303 0.739968C25.1175 -0.14286 20.3112 -0.249577 17.2455 0.494446ZM28.338 1.69257C32.0287 2.78808 34.706 4.42389 37.6586 7.38729C41.9895 11.7343 43.9698 16.4887 43.9698 22.5416C43.9698 34.415 34.4888 43.9966 22.7403 43.9966C16.6896 43.9966 11.4022 41.9067 7.44665 37.9512C3.7612 34.2665 1.72576 30.171 1.11792 25.2203C0.26307 18.251 2.45523 12.0201 7.55784 6.9179C12.8235 1.6519 21.1492 -0.44174 28.338 1.69257ZM20.2757 3.21756C15.8896 3.77912 12.1914 5.61977 8.97015 8.84474C4.93657 12.8824 3.29814 16.7935 3.29814 22.3834C3.29814 29.9475 7.29254 36.4758 13.9052 39.7183C21.5037 43.4444 30.4746 41.9713 36.2421 36.0497C37.9642 34.2818 40.2276 30.8285 40.2351 29.958C40.2369 29.727 38.6015 28.8516 36.6004 28.0125C33.3824 26.6625 32.919 26.555 32.5892 27.0823C29.903 31.374 26.7746 33.3244 22.5403 33.3479C20.4858 33.3591 19.4981 33.1632 18.0731 32.4621C10.5172 28.7431 9.30112 19.4476 15.659 14.0059C19.6205 10.6149 25.7631 10.7824 29.7769 14.391C30.7563 15.2719 31.7683 16.5003 32.0254 17.1215C32.2828 17.7424 32.7041 18.2506 32.9619 18.2506C34.166 18.2506 40.2384 15.3962 40.2384 14.8301C40.2384 14.0324 37.2153 9.72085 35.6888 8.34214C31.5269 4.5821 25.4362 2.55711 20.2757 3.21756ZM19.3922 5.95895C18.3937 6.97312 17.3996 7.80296 17.1828 7.80296C16.7843 7.80296 15.7795 5.27201 16.0649 4.98657C16.3444 4.70709 20.6425 3.79815 20.928 3.95822C21.0817 4.04441 20.3907 4.94478 19.3922 5.95895ZM27.4586 4.51642C28.331 4.73545 29.0444 5.00709 29.0444 5.11978C29.0444 5.71716 28.1033 7.80296 27.8339 7.80296C27.3157 7.80296 23.8179 4.37762 24.0134 4.0612C24.1996 3.76009 24.7276 3.82986 27.4586 4.51642ZM25.0448 6.22798C26.2186 7.41379 27.1787 8.56676 27.1787 8.78989C27.1787 9.16526 23.3104 10.788 22.416 10.788C21.5522 10.788 17.8504 9.16675 17.8504 8.78802C17.8504 8.26378 21.9959 4.07165 22.5145 4.07165C22.7325 4.07165 23.8713 5.04217 25.0448 6.22798ZM15.5366 6.80334C15.7832 7.48505 15.9847 8.15669 15.9847 8.29587C15.9847 8.43504 14.7153 8.54922 13.1642 8.54922C11.278 8.54922 10.4243 8.41862 10.5873 8.15482C10.9026 7.64475 14.1862 5.58059 14.697 5.57126C14.9123 5.56753 15.2903 6.12163 15.5366 6.80334ZM32.2112 6.51379C35.163 8.24363 35.1145 8.54922 31.8884 8.54922C30.3242 8.54922 29.0444 8.43504 29.0444 8.29587C29.0444 7.64848 29.9761 5.56417 30.2657 5.56417C30.4444 5.56417 31.3198 5.99141 32.2112 6.51379ZM15.9847 9.81824C15.9847 10.1055 15.5746 11.2257 15.0739 12.307C14.2601 14.0633 13.9399 14.3671 12.0728 15.1548C10.9231 15.6395 9.82164 15.9368 9.62538 15.8152C9.22538 15.5682 9.12799 9.93317 9.51717 9.54436C9.65373 9.40742 11.1649 9.29548 12.8754 9.29548C15.2925 9.29548 15.9847 9.4119 15.9847 9.81824ZM35.4429 10.135C35.5171 11.2645 35.3336 15.7973 35.2078 15.9342C35.153 15.9939 34.1511 15.6581 32.9813 15.188C31.1951 14.4697 30.744 14.0917 30.1634 12.8272C29.7832 11.9992 29.3578 10.866 29.2179 10.3085L28.9634 9.29548H32.1757C35.2414 9.29548 35.3903 9.33354 35.4429 10.135ZM18.8884 10.257L20.2757 10.8455L18.2235 11.6936C17.0948 12.1604 16.1149 12.4966 16.0463 12.4413C15.8903 12.3167 17.131 9.66861 17.3451 9.66861C17.431 9.66861 18.1254 9.93353 18.8884 10.257ZM28.4317 11.0208C28.7862 11.7645 29.0145 12.435 28.9384 12.5108C28.8627 12.5865 28.1422 12.3365 27.3369 11.9548C26.5317 11.5731 25.6209 11.1734 25.3131 11.0667C24.9321 10.9346 25.1701 10.685 26.0593 10.285C27.7903 9.50667 27.6955 9.47719 28.4317 11.0208ZM8.36456 15.9204C8.125 16.16 5.9668 15.2861 5.68919 14.8372C5.48023 14.4988 6.67724 12.2794 7.74403 11.0261C8.29478 10.3794 8.34291 10.5179 8.4459 13.0301C8.50672 14.5141 8.47015 15.8148 8.36456 15.9204ZM37.919 12.0007C39.5865 14.4618 39.6272 14.8033 38.3347 15.4719C37.7119 15.7939 37.0254 15.998 36.8082 15.9256C36.4798 15.8163 36.3589 13.9716 36.4839 10.9746C36.5198 10.1149 36.7552 10.2832 37.919 12.0007ZM6.79739 16.2033C7.54068 16.5141 8.14888 16.8969 8.14888 17.0547C8.14888 17.2122 7.125 18.3435 5.87389 19.5681L3.59889 21.7954L3.85187 20.1163C4.23769 17.551 4.78508 15.6387 5.13247 15.6387C5.30486 15.6387 6.05411 15.8928 6.79739 16.2033ZM12.9996 15.8402C12.9996 15.951 12.6877 16.6644 12.3063 17.426C11.925 18.1872 11.484 19.314 11.3261 19.9297L11.0392 21.0491L10.35 19.5566C9.35299 17.3965 9.45336 16.9159 11.0407 16.2574C12.5679 15.6242 12.9996 15.532 12.9996 15.8402ZM33.6936 16.5144C34.1888 16.8768 34.2563 17.0943 33.9354 17.2928C33.4727 17.579 32.4026 16.9133 32.4026 16.3394C32.4026 15.8678 32.9022 15.9357 33.6936 16.5144ZM9.97724 20.3834L10.7399 22.3293L9.92948 24.5812C9.48396 25.8192 8.94851 26.8326 8.73918 26.8326C8.24403 26.8326 4.41754 23.0543 4.41754 22.5651C4.41754 21.9692 8.64888 17.8544 8.94665 18.1607C9.09403 18.3129 9.55784 19.3129 9.97724 20.3834ZM6.27314 25.8894L8.28956 27.9315L6.92538 28.5013C5.00859 29.302 4.92836 29.2666 4.46195 27.4136C4.07725 25.8871 3.89926 23.8476 4.15038 23.8476C4.20859 23.8476 5.16381 24.7666 6.27314 25.8894ZM12.4791 28.9703C12.3522 29.0968 10.1466 28.1304 9.71269 27.7584C9.64963 27.7039 9.87463 27.0117 10.2127 26.2199L10.8276 24.7804L11.7313 26.7972C12.2287 27.9065 12.5649 28.8841 12.4791 28.9703ZM34.2683 27.939C34.2683 28.3438 32.8018 29.2218 32.5485 28.9684C32.4586 28.8785 32.491 28.5293 32.6201 28.1919C32.8698 27.5423 34.2683 27.3274 34.2683 27.939ZM8.52202 31.7538C8.52202 34.7064 8.49963 34.7848 7.85709 34.0859C6.98993 33.1423 5.53695 30.7658 5.53695 30.2908C5.53695 29.993 6.43545 29.5095 8.42873 28.7345C8.48023 28.7147 8.52202 30.0733 8.52202 31.7538ZM14.9369 32.4837C16.2545 35.1046 16.2373 35.4116 14.772 35.4296C14.1052 35.4378 12.6866 35.4978 11.6202 35.5635C10.4366 35.6366 9.62164 35.5217 9.52836 35.2691C9.39814 34.9161 9.45224 29.7203 9.59329 29.0199C9.61978 28.8889 10.6067 29.1651 11.7869 29.6337C13.7142 30.399 14.0347 30.6889 14.9369 32.4837ZM39.4921 30.1658C39.4921 30.6628 36.806 34.6665 36.5698 34.5217C36.4328 34.4374 36.375 33.1113 36.4418 31.5747L36.563 28.7804L38.0276 29.3557C38.8332 29.6721 39.4921 30.0367 39.4921 30.1658ZM35.6142 29.6617C35.4895 29.9863 35.3877 31.4565 35.3877 32.9285V35.6049L32.3093 35.4743C30.6164 35.4027 29.1672 35.2818 29.0888 35.2061C29.0108 35.1303 29.3332 34.1169 29.8052 32.9538C30.575 31.0565 30.8582 30.7505 32.5589 29.9766C34.8522 28.9337 35.9366 28.8218 35.6142 29.6617ZM17.525 32.9341C18.2172 33.2117 19.119 33.5598 19.5295 33.7076C20.241 33.9635 20.2325 34.0001 19.3429 34.4956C18.0489 35.2161 16.8548 35.1691 16.6302 34.3885C16.5269 34.0292 16.3216 33.4419 16.1735 33.0826C15.8504 32.2975 15.919 32.29 17.525 32.9341ZM29.0444 32.6348C29.0444 32.7475 28.788 33.3352 28.475 33.9408C27.8522 35.1449 27.1164 35.2915 25.6862 34.4967L24.7533 33.9785L25.8728 33.5714C26.4884 33.3471 27.328 33.0102 27.7384 32.8221C28.6269 32.415 29.0444 32.355 29.0444 32.6348ZM24.8903 35.0911C25.9436 35.5292 26.8056 36.0695 26.8056 36.2922C26.8056 36.8183 23.0351 40.6385 22.5157 40.6385C22.297 40.6385 21.1257 39.6359 19.9127 38.4101L17.7078 36.1818L19.7381 35.2598C22.256 34.1169 22.5242 34.1079 24.8903 35.0911ZM34.547 36.6885C34.6216 36.7631 33.7134 37.4299 32.5291 38.1709C30.1862 39.6366 29.703 39.5512 29.222 37.5881C29.0045 36.7001 29.0944 36.5758 30.0369 36.4605C31.2086 36.3176 34.3339 36.4754 34.547 36.6885ZM15.9847 36.9258C15.9847 37.1411 15.728 37.8139 15.4142 38.4202L14.844 39.5232L13.4552 38.7877C12.6918 38.3829 11.647 37.7142 11.134 37.3012L10.2011 36.5504L13.0929 36.5422C14.8687 36.5374 15.9847 36.6851 15.9847 36.9258ZM20.591 40.9601C19.4638 41.1937 15.9847 40.1873 15.9847 39.6276C15.9847 39.3422 16.2519 38.5922 16.5784 37.9609L17.172 36.8131L19.2067 38.8191C20.7907 40.3806 21.0974 40.8549 20.591 40.9601ZM28.5022 38.0601C29.3067 39.6161 29.0366 40.0847 27.0451 40.5862C23.6213 41.4482 23.441 41.2325 25.6862 38.9594C26.8007 37.8307 27.7563 36.9072 27.8093 36.9072C27.8623 36.9072 28.1742 37.4262 28.5022 38.0601Z" fill="#396E8B"/>
</svg>
