<svg width="97" height="16" viewBox="0 0 97 16" fill="none" xmlns="http://www.w3.org/2000/svg">
<g clip-path="url(#clip0_1_351)">
<path d="M14.8593 1.47852H0.573242V15.2022H14.8593V1.47852Z" fill="#3DA9A9"/>
<path d="M7.22097 6.16475C7.22097 6.16475 7.05112 5.23507 6.83504 4.79847C6.5265 4.17398 5.88686 3.53428 4.628 3.53428C3.36914 3.53428 1.86195 4.62036 1.14061 5.34477L0 4.19244C0.841748 3.34313 2.76283 1.90517 4.62263 1.90517C6.22335 1.90517 7.30268 2.6046 7.90684 3.37137C9.02165 2.55247 10.6901 1.6999 12.2639 1.91169C14.8591 2.2614 15.4267 4.51826 15.4267 5.35454H13.8141C13.8141 5.33825 13.7937 3.76236 12.0511 3.52668C10.7331 3.34965 9.041 4.44007 8.21645 5.21661L7.22097 6.16475Z" fill="white"/>
<path d="M7.22097 15.6213C7.22097 15.6213 7.05112 14.6916 6.83504 14.255C6.5265 13.6305 5.88686 12.9897 4.628 12.9897C3.36914 12.9897 1.86195 14.0758 1.14061 14.8013L0 13.6446C0.841748 12.7942 2.76283 11.3562 4.62263 11.3562C6.22335 11.3562 7.30268 12.0568 7.90684 12.8235C9.02165 12.0046 10.6901 11.152 12.2639 11.3638C14.8591 11.7136 15.4267 13.9704 15.4267 14.8067H13.8141C13.8141 14.7904 13.7937 13.2134 12.0511 12.9788C10.7331 12.8007 9.041 13.8922 8.21645 14.6688L7.22097 15.6213Z" fill="white"/>
<path d="M7.22097 10.8901C7.22097 10.8901 7.05112 9.96148 6.83504 9.52487C6.5265 8.89929 5.88686 8.2596 4.628 8.2596C3.36914 8.2596 1.86195 9.34567 1.14061 10.0712L0 8.91884C0.841748 8.06845 2.76283 6.63048 4.62263 6.63048C6.22335 6.63048 7.30268 7.32991 7.90684 8.09668C9.02165 7.27778 10.6901 6.4263 12.2639 6.637C14.8591 6.98671 15.4267 9.24358 15.4267 10.0799H13.8141C13.8141 10.0647 13.7937 8.48767 12.0511 8.25308C10.7331 8.07496 9.041 9.16647 8.21645 9.94301L7.22097 10.8901Z" fill="white"/>
<path d="M32.702 11.2318L33.5072 12.1528H29.0727L29.8779 11.2318V6.87335C29.8779 6.44399 29.8062 6.13989 29.6629 5.96105C29.5195 5.78221 29.2916 5.69279 28.9791 5.69279C28.5642 5.69279 28.1388 5.85136 27.7031 6.16849V11.2318L28.5083 12.1528H24.0749L24.8801 11.2318V6.87335C24.8801 6.44399 24.8084 6.13989 24.6651 5.96105C24.5217 5.78221 24.2942 5.69279 23.9824 5.69279C23.566 5.69279 23.1407 5.85136 22.7063 6.16849V11.2318L23.5115 12.1528H19.0781L19.8833 11.2318V6.53667L19.1394 5.66129L22.7085 4.08105L22.4806 5.55377L22.5569 5.63088C23.4814 4.65849 24.4887 4.17265 25.5788 4.17337C26.6689 4.1741 27.3422 4.64473 27.5988 5.58527C28.5104 4.644 29.5027 4.17337 30.5756 4.17337C31.9939 4.17337 32.7027 4.95064 32.702 6.50518V11.2318Z" fill="#33342F"/>
<path d="M39.3702 10.2656C40.2768 10.2845 41.162 9.98636 41.8761 9.42175L41.9524 9.49777C41.4134 11.3702 40.2123 12.3064 38.3489 12.3064C37.0932 12.3064 36.0899 11.9125 35.3388 11.1247C34.5877 10.3369 34.215 9.3497 34.2208 8.16298C34.2208 6.93572 34.6182 5.96404 35.413 5.24796C36.2078 4.53187 37.2384 4.17383 38.5048 4.17383C39.5977 4.17383 40.4531 4.45512 41.0709 5.01771C41.6886 5.58029 42.0025 6.39847 42.0126 7.47224H36.8643C36.9037 8.39323 37.1391 9.08904 37.5706 9.55968C38.002 10.0303 38.6019 10.2656 39.3702 10.2656ZM38.2306 4.86892C38.0437 4.86751 37.8596 4.91473 37.696 5.00603C37.5324 5.09734 37.3948 5.22965 37.2964 5.39023C37.0585 5.73778 36.9195 6.22361 36.8793 6.84775H39.2788C39.2788 5.52853 38.9294 4.86892 38.2306 4.86892Z" fill="#33342F"/>
<path d="M51.3564 10.2656L52.324 11.1399L49.3784 12.429L48.7559 11.1258H48.6807C48.3794 11.4937 48.0018 11.7903 47.5745 11.9945C47.1473 12.1987 46.6808 12.3055 46.2081 12.3074C45.7733 12.31 45.3421 12.226 44.9395 12.0602C44.5368 11.8943 44.1704 11.6499 43.8613 11.3408C43.1876 10.6964 42.8508 9.77577 42.8508 8.57891C42.8455 8.0269 42.9383 7.47841 43.1249 6.95957C43.2857 6.49923 43.5332 6.07471 43.8538 5.7095C44.1612 5.36829 44.52 5.07835 44.917 4.85041C45.3129 4.61833 45.7397 4.44496 46.1845 4.33561C46.6249 4.22832 47.0763 4.17436 47.5293 4.17487C47.8646 4.17982 48.1992 4.20558 48.5313 4.25199V2.45453L47.7873 1.58024L51.3564 0V10.2656ZM47.4079 10.9248C47.823 10.9333 48.2254 10.7796 48.5313 10.4958V5.99948C48.5351 5.85113 48.5084 5.70358 48.4529 5.56618C48.3973 5.42878 48.3142 5.30451 48.2087 5.20122C48.1042 5.09563 47.9797 5.01237 47.8427 4.9564C47.7057 4.90042 47.5589 4.87288 47.4111 4.87539C46.9252 4.87539 46.5253 5.15162 46.2113 5.70407C45.8974 6.25652 45.7383 7.00989 45.734 7.96419C45.734 8.93587 45.8885 9.67223 46.1974 10.1733C46.5063 10.6743 46.9087 10.9248 47.4046 10.9248H47.4079Z" fill="#33342F"/>
<path d="M56.4711 11.2322L57.2763 12.1532H52.8418L53.6459 11.2322V6.53713L52.902 5.66176L56.4711 4.08152V11.2322ZM56.069 2.99978C55.8187 3.24233 55.4931 3.39007 55.1473 3.41801C54.8015 3.44595 54.4568 3.35237 54.1715 3.1531C53.8862 2.95384 53.6777 2.66111 53.5814 2.32446C53.4852 1.9878 53.5069 1.62787 53.6431 1.30556C53.7792 0.983248 54.0214 0.718339 54.3286 0.555644C54.6358 0.392948 54.9892 0.342453 55.329 0.412704C55.6689 0.482954 55.9742 0.669635 56.1935 0.941168C56.4128 1.2127 56.5325 1.55242 56.5324 1.90285C56.5332 2.10794 56.4926 2.31105 56.4129 2.49969C56.3332 2.68833 56.2162 2.85851 56.069 2.99978Z" fill="#33342F"/>
<path d="M66.4817 10.5567L66.558 10.6338C66.3845 11.1964 66.1057 11.616 65.7216 11.8926C65.331 12.1703 64.8629 12.3152 64.3853 12.3064C63.5447 12.3064 62.9473 11.9443 62.5933 11.2203H62.5169C62.2488 11.5699 61.9027 11.8505 61.5069 12.0393C61.111 12.228 60.6765 12.3195 60.2389 12.3064C59.581 12.3064 59.0546 12.1301 58.6597 11.7774C58.2648 11.4248 58.0674 10.9517 58.0674 10.3579C58.0674 9.49777 58.4616 8.8378 59.2499 8.37802H62.4395V7.54935C62.4395 6.96576 62.3102 6.55668 62.0514 6.32208C61.7927 6.08749 61.4057 5.96983 60.8904 5.96911C60.14 5.96911 59.3603 6.2247 58.5511 6.73588L58.4748 6.65985C59.3255 5.0025 60.6267 4.17383 62.3783 4.17383C63.2698 4.17383 63.9661 4.39901 64.467 4.84937C64.968 5.29973 65.2188 5.92856 65.2196 6.73588V10.0658C65.2196 10.577 65.412 10.8329 65.7969 10.8336C66.0503 10.8258 66.2929 10.7277 66.4817 10.5567ZM61.4236 11.0172C61.6151 11.0125 61.8037 10.9694 61.9785 10.8904C62.1533 10.8113 62.3107 10.6979 62.4417 10.5567V9.00686H60.9248C60.6601 9.28229 60.5127 9.65149 60.5142 10.0354C60.5142 10.3525 60.598 10.5954 60.7657 10.7641C60.8527 10.8491 60.9559 10.9154 61.069 10.9589C61.1821 11.0024 61.3027 11.0222 61.4236 11.0172Z" fill="#33342F"/>
<path d="M75.5179 4.17379C75.9528 4.17115 76.3839 4.25517 76.7866 4.42103C77.1893 4.58689 77.5556 4.83134 77.8647 5.1404C78.5377 5.7848 78.8745 6.70543 78.8752 7.90228C78.8806 8.45429 78.7877 9.00278 78.6011 9.52162C78.4404 9.98197 78.1928 10.4065 77.8722 10.7717C77.5649 11.1129 77.2061 11.4028 76.809 11.6308C76.4141 11.8625 75.9884 12.0359 75.5448 12.1456C75.1048 12.2529 74.6537 12.3069 74.201 12.3063C73.1475 12.3063 72.2563 12.1376 71.5274 11.8002L70.3739 12.3063V2.45453L69.6289 1.58024L73.1991 0V4.15858L72.9647 5.27833L73.04 5.35544C73.3412 4.98746 73.7188 4.69087 74.1461 4.48668C74.5734 4.28248 75.0399 4.17566 75.5126 4.17379H75.5179ZM74.3182 11.6025C74.8041 11.6025 75.204 11.3263 75.5179 10.7739C75.8318 10.2214 75.9888 9.46949 75.9888 8.51809C75.9888 7.54714 75.8343 6.81078 75.5254 6.30901C75.2166 5.80725 74.8141 5.55636 74.3182 5.55636C73.9023 5.54937 73.4998 5.70502 73.1948 5.99079V10.4871C73.1909 10.6354 73.2175 10.7828 73.273 10.92C73.3286 11.0573 73.4117 11.1813 73.5173 11.2843C73.6227 11.3891 73.748 11.4713 73.8856 11.526C74.0232 11.5806 74.1704 11.6067 74.3182 11.6025Z" fill="#33342F"/>
<path d="M88.2766 10.5567L88.3529 10.6338C88.1809 11.1964 87.9025 11.616 87.5176 11.8926C87.1264 12.17 86.6582 12.3149 86.1803 12.3064C85.3396 12.3064 84.7422 11.9443 84.3882 11.2203H84.3129C84.0446 11.5699 83.6982 11.8504 83.3022 12.0392C82.9062 12.2279 82.4716 12.3195 82.0339 12.3064C81.3759 12.3064 80.8495 12.1301 80.4546 11.7774C80.0598 11.4248 79.8623 10.9517 79.8623 10.3579C79.8623 9.49777 80.2565 8.8378 81.0448 8.37803H84.2345V7.54935C84.2345 6.96576 84.1055 6.55668 83.8474 6.32209C83.5894 6.08749 83.2021 5.96983 82.6853 5.96911C81.9357 5.96911 81.1559 6.2247 80.3461 6.73588L80.2697 6.65985C81.1212 5.0025 82.4223 4.17383 84.1732 4.17383C85.0647 4.17383 85.761 4.39901 86.262 4.84937C86.7629 5.29973 87.0138 5.92856 87.0145 6.73588V10.0658C87.0145 10.577 87.2066 10.8329 87.5907 10.8336C87.8445 10.8261 88.0875 10.7279 88.2766 10.5567ZM83.2239 11.0172C83.4154 11.0125 83.604 10.9694 83.7788 10.8904C83.9536 10.8113 84.111 10.6979 84.242 10.5567V9.00686H82.7176C82.4532 9.2824 82.3061 9.65162 82.308 10.0354C82.308 10.3525 82.3908 10.5958 82.5585 10.7641C82.6457 10.8494 82.7492 10.9158 82.8627 10.9593C82.9762 11.0028 83.0973 11.0225 83.2186 11.0172H83.2239Z" fill="#33342F"/>
<path d="M95.6138 5.24825L92.379 12.614L91.8168 13.9021L93.5368 15.8364H89.8914L91.82 11.7701L88.165 5.18634L87.2383 4.32726H92.2662L91.461 5.24825L93.253 8.53146L94.6355 5.24825L93.7465 4.32617H96.6017L95.6138 5.24825Z" fill="#33342F"/>
</g>
<defs>
<clipPath id="clip0_1_351">
<rect width="96.6" height="15.8361" fill="white"/>
</clipPath>
</defs>
</svg>
