<svg width="20" height="20" viewBox="0 0 20 20" fill="none" xmlns="http://www.w3.org/2000/svg">
<g clip-path="url(#clip0_1_189)">
<path d="M19.5671 16.0355L13.8108 11.1121L19.813 3.86526C20.0997 3.51901 20.0514 3.00607 19.7053 2.71939C19.3592 2.43259 18.8461 2.48077 18.5593 2.82703L12.0463 10.6907C12.0133 10.7304 11.9853 10.7725 11.9612 10.8162V3.34615C11.9612 2.89669 11.597 2.53231 11.1474 2.53231H10.1143C9.6647 2.53231 9.30042 2.89669 9.30042 3.34615C9.30042 3.7956 9.6647 4.15998 10.1143 4.15998H10.3336V14.279L1.4567 2.847C1.18098 2.49195 0.669672 2.42771 0.314733 2.70333C-0.0403157 2.97895 -0.104554 3.49025 0.171064 3.84519L10.5045 17.1531C10.6616 17.3556 10.9007 17.4679 11.1474 17.4679C11.2355 17.4679 11.3246 17.4536 11.4112 17.4239C11.7401 17.3112 11.9611 17.0018 11.9611 16.6541V11.6029C12.007 11.6861 12.0676 11.763 12.1441 11.8285L18.5091 17.2726C18.6624 17.4038 18.8505 17.4679 19.0377 17.4679C19.2673 17.4679 19.4956 17.3712 19.6565 17.183C19.9487 16.8415 19.9087 16.3277 19.5671 16.0355Z" fill="#33342F"/>
</g>
<defs>
<clipPath id="clip0_1_189">
<rect width="20" height="20" fill="white"/>
</clipPath>
</defs>
</svg>
