<svg width="20" height="20" viewBox="0 0 20 20" fill="none" xmlns="http://www.w3.org/2000/svg">
<g clip-path="url(#clip0_1_193)">
<path d="M17.1593 2.84073C15.3273 1.00876 12.8922 0 10.3012 0C10.3011 0 10.3004 0 10.3003 0C9.01886 0.000152588 7.77008 0.248261 6.5889 0.73761C5.40756 1.22696 4.34922 1.93451 3.443 2.84073C1.61118 4.67255 0.602419 7.10815 0.602419 9.69879C0.602419 11.2437 0.975191 12.7791 1.68152 14.147L0.0512718 18.8043C-0.0636269 19.1328 0.0177025 19.4899 0.263979 19.736C0.436251 19.9084 0.662997 20 0.896151 20C0.996096 20 1.09711 19.9832 1.19568 19.9487L5.85297 18.3186C7.22092 19.025 8.75626 19.3977 10.3012 19.3977C12.8918 19.3977 15.3273 18.3888 17.1593 16.557C18.9911 14.7252 20 12.2896 20 9.69894C20 7.10815 18.9912 4.67255 17.1593 2.84073ZM16.3298 15.7275C14.7195 17.338 12.5784 18.2246 10.3012 18.2246C8.90808 18.2246 7.52411 17.8801 6.29883 17.2279C6.07666 17.1098 5.81406 17.0895 5.57831 17.1721L1.34705 18.653L2.82807 14.4217C2.91062 14.1856 2.89017 13.923 2.77207 13.701C2.12006 12.476 1.77536 11.0921 1.77536 9.69879C1.77536 7.42157 2.6622 5.28046 4.27246 3.6702C5.88257 2.06009 8.02338 1.17325 10.3004 1.17294H10.3012C12.5786 1.17294 14.7195 2.05978 16.3298 3.6702C17.9402 5.28046 18.8271 7.42142 18.8271 9.69879C18.8271 11.9762 17.9402 14.1173 16.3298 15.7275Z" fill="#33342F"/>
<path d="M13.9056 10.5653C13.4594 10.1191 12.7334 10.1191 12.2873 10.5653L11.7993 11.0533C10.5876 10.393 9.60706 9.41248 8.94666 8.20078L9.43464 7.7128C9.88096 7.26663 9.88096 6.54062 9.43464 6.09445L8.11963 4.77945C7.67347 4.33328 6.94745 4.33328 6.50129 4.77945L5.44935 5.83139C4.84678 6.43396 4.81672 7.46988 5.36466 8.74841C5.84043 9.85849 6.71109 11.0786 7.81629 12.1838C8.92148 13.289 10.1416 14.1596 11.2517 14.6354C11.8591 14.8957 12.4116 15.0256 12.8891 15.0256C13.4166 15.0256 13.8524 14.867 14.1687 14.5507L15.2206 13.4986V13.4988C15.4368 13.2826 15.5559 12.9952 15.5559 12.6896C15.5559 12.3838 15.4368 12.0965 15.2206 11.8804L13.9056 10.5653ZM13.3392 13.7213C13.1672 13.8932 12.6384 13.9535 11.7138 13.5574C10.7376 13.139 9.64795 12.3565 8.64576 11.3543C7.64356 10.3521 6.86124 9.26263 6.44285 8.28638C6.04657 7.36185 6.10685 6.83282 6.27881 6.66086L7.31061 5.62906L8.58503 6.90363L7.97422 7.51459C7.69803 7.79077 7.63135 8.20963 7.80851 8.55692C8.61158 10.1316 9.86844 11.3885 11.4432 12.1916C11.7906 12.3687 12.2094 12.3022 12.4856 12.0258L13.0964 11.415L14.371 12.6896L13.3392 13.7213Z" fill="#33342F"/>
</g>
<defs>
<clipPath id="clip0_1_193">
<rect width="20" height="20" fill="white"/>
</clipPath>
</defs>
</svg>
